<svg width="16" height="16" viewBox="0 0 16 16" fill="none" xmlns="http://www.w3.org/2000/svg">
<path d="M15.5883 8.22511C15.5892 7.70904 15.5452 7.19388 15.4569 6.68542H8.31412V9.60317H12.4068C12.3229 10.0694 12.1453 10.5138 11.8848 10.9096C11.6244 11.3053 11.2864 11.6441 10.8914 11.9056V13.7989H13.3333C14.0783 13.0794 14.664 12.2115 15.0525 11.2514C15.4409 10.2913 15.6234 9.26025 15.5883 8.22511Z" fill="#009EE2"/>
<path d="M8.31193 15.6286C10.1579 15.6803 11.954 15.026 13.3341 13.799L10.8922 11.9057C10.3043 12.282 9.63827 12.5195 8.94481 12.6001C8.25136 12.6806 7.54867 12.6021 6.89008 12.3705C6.23149 12.139 5.63431 11.7604 5.14387 11.2636C4.65343 10.7667 4.28262 10.1647 4.05958 9.50317H1.54292V11.4551C2.17369 12.7096 3.14066 13.7642 4.33593 14.5012C5.53119 15.2382 6.90773 15.6285 8.31193 15.6286Z" fill="#34A853"/>
<path d="M4.05955 9.50044C3.74225 8.55962 3.74225 7.5407 4.05955 6.59987V4.651H1.54289C1.01288 5.7068 0.736877 6.87182 0.736877 8.05318C0.736877 9.23454 1.01288 10.3996 1.54289 11.4554L4.05955 9.50044Z" fill="#FBBC04"/>
<path d="M8.31193 3.47275C9.39228 3.45518 10.4362 3.86304 11.2186 4.60832L13.3836 2.44527C12.0113 1.1576 10.1937 0.451207 8.31193 0.474176C6.90741 0.474596 5.53066 0.865378 4.33536 1.60289C3.14006 2.34041 2.17327 3.39563 1.54292 4.65076L4.05958 6.60265C4.35252 5.70208 4.92021 4.91589 5.6829 4.35451C6.4456 3.79314 7.36499 3.48478 8.31193 3.47275Z" fill="#EA4335"/>
</svg>
