<svg width="14" height="16" viewBox="0 0 14 16" fill="none" xmlns="http://www.w3.org/2000/svg">
<path d="M11.0199 8.48255C11.0057 7.89348 11.1565 7.31217 11.4553 6.80427C11.754 6.29638 12.1889 5.88214 12.7106 5.60834C12.3821 5.15215 11.9522 4.77837 11.4548 4.5164C10.9574 4.25442 10.4061 4.11138 9.84403 4.09853C8.64277 4.00385 7.32909 4.79933 6.84892 4.79933C6.34171 4.79933 5.1768 4.13234 4.26297 4.13234C2.37613 4.167 0.368408 5.643 0.368408 8.64486C0.377264 9.58168 0.542111 10.5105 0.85618 11.3931C1.289 12.6358 2.85292 15.6816 4.48446 15.6309C5.33742 15.6106 5.94016 15.0248 7.05012 15.0248C8.12626 15.0248 8.68504 15.6309 9.63607 15.6309C11.2811 15.6072 12.6963 12.8412 13.1088 11.5926C12.4908 11.3406 11.9621 10.9099 11.5901 10.3558C11.2182 9.80161 11.0199 9.14912 11.0208 8.48171L11.0199 8.48255ZM9.10434 2.92517C9.40328 2.59583 9.63 2.20757 9.76991 1.78536C9.90983 1.36314 9.95984 0.916328 9.91673 0.473633C9.03014 0.568933 8.21077 0.990824 7.6182 1.65713C7.31525 1.98108 7.08209 2.36382 6.93318 2.7816C6.78428 3.19939 6.72279 3.64332 6.75255 4.08585C7.20909 4.09554 7.66124 3.99513 8.07075 3.79309C8.48026 3.59106 8.83508 3.29336 9.10518 2.92517H9.10434Z" fill="black"/>
</svg>
