<svg width="16" height="16" viewBox="0 0 16 16" fill="none" xmlns="http://www.w3.org/2000/svg">
<path d="M15.2676 8.05284C15.2672 6.60408 14.8517 5.18576 14.0703 3.9658C13.2889 2.74583 12.1743 1.77531 10.8584 1.16914C9.5426 0.562968 8.08061 0.346521 6.64557 0.54543C5.21053 0.744338 3.86252 1.35027 2.76115 2.29149C1.65978 3.23271 0.851168 4.4698 0.431034 5.85631C0.0108999 7.24281 -0.00315864 8.72067 0.390527 10.1149C0.784213 11.5092 1.56915 12.7614 2.65242 13.7234C3.73569 14.6854 5.07192 15.3169 6.50292 15.543V10.243H4.57899V8.05284H6.50208V6.38329C6.46079 5.99326 6.50578 5.59891 6.63389 5.22821C6.76199 4.8575 6.97005 4.51951 7.24334 4.23818C7.51663 3.95685 7.84846 3.73907 8.21529 3.60028C8.58213 3.46149 8.97501 3.40508 9.36608 3.43506C9.93534 3.44316 10.5032 3.49328 11.0651 3.585V5.44997H10.1082C9.94543 5.42848 9.77991 5.44385 9.62389 5.49496C9.46787 5.54608 9.32534 5.63162 9.20685 5.74526C9.08836 5.8589 8.99694 5.99773 8.93935 6.15148C8.88176 6.30522 8.85947 6.46995 8.87415 6.63348V8.05284H10.98L10.6431 10.243H8.87415V15.5397C10.6565 15.2569 12.2796 14.3476 13.4515 12.9753C14.6235 11.6029 15.2674 9.85751 15.2676 8.05284Z" fill="#009EE2"/>
</svg>
